/* XPM */
static char *f5d30383149940dfcc1164e23ec2179eD2gR9DqHBzQi3HFB[] = {
/* columns rows colors chars-per-pixel */
"20 20 7 1 ",
"  c #E1E1E1",
". c #E2E2E2",
"X c gray89",
"o c #E4E4E4",
"O c gray90",
"+ c #E6E6E6",
"@ c #E7E7E7",
/* pixels */
"XXXXXXXXXXXXXXXXOOOO",
"XXXXXXXXOOOOOOOOOOOO",
"XXXXXXXXOOOOOOOOOOOO",
"XXXXXXXXOOOOOOOOOOOO",
"XXXXXXXXXXXXXXXXOOOO",
"XXXXXXXXXXXXXXXXOOOO",
"XXXXXXXXOOOOOOOOOOOO",
"XXXXXXXXOOOOOOOOOOOO",
"OOOOOOOOOOOOOOOOOOOO",
"OOOOOOOOOOOOOOOOOOOO",
"OOOOOOOOOOOOOOOOOO@@",
"OOOOOOOOOOOOOOOO@@@@",
"OOOOOOOOOOOOOOOO@@@@",
"OOOOOOOOOOOOOOOO@@@@",
"OOOOOOOOOOOOOOOOOOOO",
"OOOOOOOOOOOOOOOOOOOO",
"OOOOOOOOOOOOOOOOOOOO",
"OOOOOOOOOOOOOOOOOOOO",
"OOOOOOOOOOOOOOOOO@@O",
"OOOOOOOOOOOOOOOO@@O@"
};
